<?xml version="1.0" encoding="iso-8859-1"?>
<!-- Generator: Adobe Illustrator 19.0.0, SVG Export Plug-In . SVG Version: 6.00 Build 0)  -->
<svg xmlns="http://www.w3.org/2000/svg" xmlns:xlink="http://www.w3.org/1999/xlink" version="1.1" id="Layer_1" x="0px" y="0px" viewBox="0 0 502.019 502.019" style="enable-background:new 0 0 502.019 502.019;" xml:space="preserve" width="512px" height="512px">
<g>
	<g>
		<g>
			<path d="M444.501,210.539l-17.676-40.206c-1.028-2.34-2.168-4.656-3.385-6.878c-7.161-13.093-18.911-22.95-33.088-27.756     c-14.133-4.792-29.455-4.151-43.146,1.801l-8.412,3.658l-15.823-35.992c-5.29-12.033-14.965-21.264-27.242-25.992     c-12.219-4.706-25.509-4.363-37.435,0.963l-23.937,10.37c-4.167-6.298-9.306-11.049-15.351-14.177     c-11.874-6.145-26.241-5.589-42.706,1.65l-17.777,7.815l-21.639-49.223c-8.288-18.853-23.643-31.785-42.127-35.48     c-17.351-3.467-35.005,1.43-47.234,13.101c-18.429,17.587-23.724,43.993-13.5,67.251l80.667,184.65     c-24.236-5.899-52.415-1.223-68.77,13.384c-0.664,0.417-1.288,0.919-1.857,1.504c-10.81,11.134-16.141,24.582-15.416,38.889     c0.911,18.004,11.266,35.818,29.943,51.516c0.082,0.069,0.165,0.137,0.249,0.203l162.998,128.287     c1.795,1.412,3.979,2.142,6.186,2.142c1.362,0,2.732-0.278,4.023-0.846l233.508-102.652c3.425-1.505,5.723-4.797,5.956-8.531     l1.271-20.347C476.171,315.354,466.393,260.336,444.501,210.539z M452.82,368.397l-0.891,14.267l-222.438,97.785L71.339,355.976     c-14.24-12.003-22.096-24.836-22.718-37.116c-0.407-8.047,2.353-15.514,8.208-22.226c0.381-0.293,0.745-0.616,1.09-0.971     c14.6-15.038,50.97-16.116,69.865-2.182l40.575,38.97c1.938,1.862,4.434,2.788,6.926,2.788c2.627,0,5.25-1.029,7.213-3.073     c3.826-3.983,3.698-10.313-0.285-14.139l-39.644-38.076L52.342,73.416c-8.261-18.79-0.772-35.438,8.989-44.755     c7.402-7.066,18.705-10.114,29.506-7.957c12.177,2.434,22.027,10.928,27.738,23.917l68.24,155.229     c1.646,3.747,5.313,5.978,9.159,5.978c1.344,0,2.711-0.272,4.02-0.848c5.056-2.223,7.353-8.123,5.13-13.179l-38.553-87.698     l17.777-7.815c10.657-4.686,19.225-5.425,25.465-2.196c4.429,2.292,8.123,6.749,10.979,13.245c0,0.001,0.001,0.002,0.001,0.002     l40.244,91.546c1.647,3.747,5.313,5.978,9.159,5.978c1.344,0,2.711-0.272,4.02-0.848c5.056-2.223,7.353-8.123,5.13-13.179     l-36.198-82.342l23.15-10.029c0.038-0.017,0.076-0.034,0.115-0.051c7.039-3.156,14.897-3.361,22.127-0.577     c7.267,2.799,12.992,8.26,16.121,15.377l47.828,108.795c1.647,3.747,5.313,5.978,9.159,5.978c1.344,0,2.711-0.272,4.02-0.848     c5.056-2.223,7.353-8.123,5.13-13.179l-23.956-54.492l8.339-3.627c19.022-8.271,40.822-0.872,50.714,17.214     c0.942,1.721,1.824,3.513,2.621,5.326l17.676,40.207C446.804,265.476,456.011,317.279,452.82,368.397z" fill="#FFFFFF"/>
			<path d="M405.593,366.776l-11.595,5.085c-5.058,2.218-7.36,8.116-5.142,13.174c1.645,3.751,5.314,5.986,9.163,5.986     c1.342,0,2.706-0.272,4.012-0.845l11.595-5.085c5.058-2.218,7.36-8.116,5.142-13.174     C416.548,366.858,410.649,364.559,405.593,366.776z" fill="#FFFFFF"/>
			<path d="M358.824,387.551l-123.826,54.31c-5.058,2.218-7.36,8.116-5.142,13.174c1.645,3.751,5.314,5.986,9.163,5.986     c1.342,0,2.706-0.272,4.012-0.845l123.826-54.31c5.058-2.218,7.36-8.116,5.142-13.174     C369.779,387.634,363.879,385.333,358.824,387.551z" fill="#FFFFFF"/>
		</g>
	</g>
</g>
<g>
</g>
<g>
</g>
<g>
</g>
<g>
</g>
<g>
</g>
<g>
</g>
<g>
</g>
<g>
</g>
<g>
</g>
<g>
</g>
<g>
</g>
<g>
</g>
<g>
</g>
<g>
</g>
<g>
</g>
</svg>
