<?xml version="1.0" encoding="iso-8859-1"?>
<!-- Generator: Adobe Illustrator 18.0.0, SVG Export Plug-In . SVG Version: 6.00 Build 0)  -->
<!DOCTYPE svg PUBLIC "-//W3C//DTD SVG 1.1//EN" "http://www.w3.org/Graphics/SVG/1.1/DTD/svg11.dtd">
<svg version="1.1" id="Capa_1" xmlns="http://www.w3.org/2000/svg" xmlns:xlink="http://www.w3.org/1999/xlink" x="0px" y="0px"
	 viewBox="0 0 58.083 58.083" style="enable-background:new 0 0 58.083 58.083;" xml:space="preserve">
<g>
	<path style="fill:#D1D4D1;" d="M29.042,1C13.002,1,0,9.525,0,20.042c0,6.929,5.645,12.992,14.083,16.323v1.719c0,1.657,1.343,3,3,3
		c1.633,0,2.954-1.306,2.993-2.929c0.002,0,0.005,0.001,0.007,0.001v2.928c0,1.657,1.343,3,3,3c1.641,0,2.971-1.32,2.995-2.955
		c0.002,0.008,0.005,0.002,0.005-0.045c0-1.657,1.343-3,3-3s3,1.343,3,3c0,0.047,0.002,0.053,0.005,0.045
		c0.025,1.636,1.354,2.955,2.995,2.955c1.657,0,3-1.343,3-3v-2.946c0.002,0,0.004-0.001,0.005-0.001
		c0.029,1.632,1.356,2.947,2.995,2.947c1.657,0,3-1.343,3-3v-1.75c8.392-3.338,14-9.385,14-16.292C58.083,9.525,45.081,1,29.042,1z"
		/>
	<circle style="fill:#A5A5A4;" cx="19.083" cy="23.083" r="9"/>
	<circle style="fill:#A5A5A4;" cx="40.083" cy="23.083" r="7"/>
	<path style="fill:#556080;" d="M40.083,16.083c-3.331,0-6.112,2.328-6.821,5.444c0.708,3.116,3.49,5.444,6.821,5.444
		s6.112-2.328,6.821-5.444C46.196,18.412,43.414,16.083,40.083,16.083z"/>
	<path style="fill:#556080;" d="M19.083,14.083c-4.282,0-7.859,2.993-8.769,7c0.911,4.007,4.487,7,8.769,7s7.859-2.993,8.769-7
		C26.942,17.077,23.365,14.083,19.083,14.083z"/>
	<path style="fill:#A5A5A4;" d="M40.922,46.088c-1.622,0.085-2.839,1.541-2.839,3.165l0,0c0,1.624-1.216,3.081-2.839,3.165
		c-1.73,0.091-3.161-1.285-3.161-2.996v-0.17c0-1.624-1.216-3.081-2.839-3.165c-1.73-0.091-3.161,1.285-3.161,2.996l0,0
		c0,1.624-1.216,2.911-2.839,2.996c-1.73,0.091-3.161-1.285-3.161-2.996v0.17c0-1.624-1.216-3.081-2.839-3.165
		c-1.73-0.091-3.161,1.285-3.161,2.996v2c0,3.314,2.686,6,6,6h0h6h6h6h0c3.314,0,6-2.686,6-6v-2
		C44.083,47.373,42.652,45.997,40.922,46.088z"/>
</g>
<g>
</g>
<g>
</g>
<g>
</g>
<g>
</g>
<g>
</g>
<g>
</g>
<g>
</g>
<g>
</g>
<g>
</g>
<g>
</g>
<g>
</g>
<g>
</g>
<g>
</g>
<g>
</g>
<g>
</g>
</svg>
