<?xml version="1.0" encoding="iso-8859-1"?>
<!-- Generator: Adobe Illustrator 18.1.1, SVG Export Plug-In . SVG Version: 6.00 Build 0)  -->
<svg xmlns="http://www.w3.org/2000/svg" xmlns:xlink="http://www.w3.org/1999/xlink" version="1.1" id="Capa_1" x="0px" y="0px" viewBox="0 0 513.988 513.988" style="enable-background:new 0 0 513.988 513.988;" xml:space="preserve" width="512px" height="512px">
<g>
	<g>
		<path d="M236.965,89.788c9.226-11.559,13.355-26.036,11.681-40.724C245.443,21.11,221.838,0,193.721,0    c-33.156,0-58.818,28.881-55.095,61.639C144.316,110.963,206.678,127.968,236.965,89.788z" fill="#FFFFFF"/>
		<path d="M485.643,467.296C483.163,462.183,332.265,177,315.528,147.794    c36.757-9.584,68.516,3.625,93.535,38.676c26.751,37.359,68.467,2.642,41.253-35.384C404.91,87.48,315.008,58.948,244.687,100.672    c-30.864,18.346-55.908,32.344-90.455,32.344c-72.279,0-71.572-55.64-105.184-55.64c-20.24,0-34.603,23.516-16.347,49.064    c48.373,67.752,113.654,88.163,177.528,69.971c18.785,32.409,37.123,65.915,55.99,102.355l-75.685,52.177    c-24.491,21.427-5.105,51.446,10.616,60.875c18.956,11.404,43.122,23.313,66.622,34.928c49.804,24.573,52.405,27.564,65.72,28.58    c27.263,2.081,45.422-38.651,13.225-57.981c-20.159-12.112-47.723-30.23-68.662-43.073c18.549-11.86,62.005-30.003,64.11-31.197    c27.45,46.609,46.967,80.514,61.379,105.192c-0.089,0.024-0.163,0.065-0.244,0.081c0.065,0.13,0.138,0.228,0.195,0.341    c28.239,47.829,28.783,51.747,39.367,59.883C464.533,525.26,502.022,501.094,485.643,467.296z" fill="#FFFFFF"/>
	</g>
</g>
<g>
</g>
<g>
</g>
<g>
</g>
<g>
</g>
<g>
</g>
<g>
</g>
<g>
</g>
<g>
</g>
<g>
</g>
<g>
</g>
<g>
</g>
<g>
</g>
<g>
</g>
<g>
</g>
<g>
</g>
</svg>
